<svg width="12" height="87" fill="none" xmlns="http://www.w3.org/2000/svg"><path d="M7 1a1 1 0 0 0-1 0h1ZM6 84l3-3-3-3-3 3 3 3ZM6 4h1-1Zm1 6H6h1Zm-1 5h1-1Zm1 6a1 1 0 0 0-1 0h1Zm-1 6a1 1 0 0 0 1 0H6Zm1 5H6h1Zm-1 6a1 1 0 0 0 1 0H6Zm1 6a1 1 0 0 0-1 0h1Zm-1 6h1-1Zm1 5a1 1 0 0 0-1 0h1Zm-1 6a1 1 0 0 0 1 0H6Zm1 6H6h1Zm-1 5a1 1 0 0 0 1 0H6Zm1 6H6h1ZM6 1v3h1V1H6Zm0 9v5h1v-5H6Zm0 11v6h1v-6H6Zm0 11v6h1v-6H6Zm0 12v6h1v-6H6Zm0 11v6h1v-6H6Zm0 12v5h1v-5H6Zm0 11v3h1v-3H6ZM7 1a1 1 0 0 0-2 0h2ZM6 87l6-6-6-6-6 6 6 6ZM5 4a1 1 0 1 0 2 0H5Zm2 6a1 1 0 1 0-2 0h2Zm-2 5a1 1 0 1 0 2 0H5Zm2 6a1 1 0 1 0-2 0h2Zm-2 6a1 1 0 1 0 2 0H5Zm2 5a1 1 0 1 0-2 0h2Zm-2 6a1 1 0 0 0 2 0H5Zm2 6a1 1 0 0 0-2 0h2Zm-2 6a1 1 0 1 0 2 0H5Zm2 5a1 1 0 1 0-2 0h2Zm-2 6a1 1 0 1 0 2 0H5Zm2 6a1 1 0 1 0-2 0h2Zm-2 5a1 1 0 1 0 2 0H5Zm2 6a1 1 0 1 0-2 0h2ZM5 1v3h2V1H5Zm0 9v5h2v-5H5Zm0 11v6h2v-6H5Zm0 11v6h2v-6H5Zm0 12v6h2v-6H5Zm0 11v6h2v-6H5Zm0 12v5h2v-5H5Zm0 11v3h2v-3H5Z" fill="#fff"/></svg>