<svg width="20" height="20" fill="none" xmlns="http://www.w3.org/2000/svg"><g clip-path="url(#a)" fill="#12F7D6"><path fill-rule="evenodd" clip-rule="evenodd" d="M8 6a4 4 0 1 1 4 8 4 4 0 0 1-4-8Zm2 1a3 3 0 1 0 0 5 3 3 0 0 0 0-5Z"/><path d="M15 5a1 1 0 1 0 0 1 1 1 0 0 0 0-1Z"/><path fill-rule="evenodd" clip-rule="evenodd" d="M1 6c0-3 2-5 5-5h8c3 0 5 2 5 5v8c0 3-2 5-5 5H6c-3 0-5-2-5-5V6Zm5-3C4 3 3 4 3 6v8c0 2 1 4 3 4h8c2 0 4-2 4-4V6c0-2-2-3-4-3H6Z"/></g><defs><clipPath id="a"><path fill="#fff" d="M0 0h20v20H0z"/></clipPath></defs></svg>