<svg width="56" height="52" fill="none" xmlns="http://www.w3.org/2000/svg"><path d="m19 1-5 1-4 5-1 8h1l-1 1c-3 1-5 2-6 4l-3 6 3 6c1 2 3 3 6 4l1 1H9l1 8 4 5c2 1 4 2 7 1l6-3 1-1 1 1c2 1 4 3 7 3 2 1 4 0 6-1l4-5 1-8h-1l1-1c3-1 5-2 6-4l3-6-3-6c-1-2-3-3-6-4l-1-1h1l-1-8-4-5c-2-1-4-2-6-1-3 0-5 2-7 3l-1 1-1-1-6-3h-2Zm0 4h1l5 2-5 6-7 1 1-6 2-3h3Zm18 0h3l2 3 1 6-7-1-5-6 5-2h1Zm-9 5 2 2a59 59 0 0 0-4 0l2-2Zm0 6h6a53 53 0 0 1 5 10 53 53 0 0 1-5 10 53 53 0 0 1-12 0 53 53 0 0 1-5-10 53 53 0 0 1 5-10h6Zm-11 1a59 59 0 0 0-2 4l-1-3 3-1Zm22 0 3 1-1 3a59 59 0 0 0-2-4Zm-29 2 2 7-2 7-4-4c-2-1-2-2-2-3s0-2 2-3l4-4Zm36 0 4 4c2 1 2 2 2 3s0 2-2 3l-4 4-2-7 2-7Zm-18 1c-3 0-6 3-6 6s3 6 6 6 6-3 6-6-3-6-6-6Zm0 4 2 2-2 2-2-2 2-2Zm-13 7a59 59 0 0 0 2 4l-3-1 1-3Zm26 0 1 3-3 1a59 59 0 0 0 2-4Zm-28 7 7 1 5 6-5 2h-4l-2-3-1-6Zm30 0-1 6-2 3h-4l-5-2 5-6 7-1Zm-17 2a59 59 0 0 0 4 0l-2 2-2-2Z" fill="#fff"/></svg>